/* XPM */
static char * C:\Users\Benjamin\git\de_umg_mi_idrt_ioe\de_umg_mi_idrt_ioe\images\i2b2_xpm[] = {
"16 16 165 2",
"  	c #F1F1F1",
". 	c #DFDFDF",
"+ 	c #EAEAEA",
"@ 	c #E2E2E2",
"# 	c #D5D5D5",
"$ 	c #ECECEC",
"% 	c #F3F3F3",
"& 	c #CFCFCF",
"* 	c #2B5285",
"= 	c #E1E1E1",
"- 	c #EDEDED",
"; 	c #8AB2B5",
"> 	c #D7D7D7",
", 	c #D3D3D3",
"' 	c #1D385B",
") 	c #82A8AA",
"! 	c #A0D0D4",
"~ 	c #7B9EA0",
"{ 	c #CCCCCC",
"] 	c #A4ADBA",
"^ 	c #ECEDEE",
"/ 	c #869E9F",
"( 	c #E7E7E7",
"_ 	c #94BFC3",
": 	c #719295",
"< 	c #1C3557",
"[ 	c #BFD3D4",
"} 	c #A6D3D6",
"| 	c #A4D1D5",
"1 	c #7DA7AA",
"2 	c #EFEFF0",
"3 	c #E3E3E3",
"4 	c #59697F",
"5 	c #DDEBEB",
"6 	c #24436B",
"7 	c #688789",
"8 	c #9FCBCE",
"9 	c #8DB5B8",
"0 	c #2A4F81",
"a 	c #F2F2F2",
"b 	c #ADC2C5",
"c 	c #D8D8D8",
"d 	c #203D63",
"e 	c #6A8B8C",
"f 	c #91ACAE",
"g 	c #CECECE",
"h 	c #E2E8E9",
"i 	c #F0F0F0",
"j 	c #C9E4E6",
"k 	c #A5D0D3",
"l 	c #A2ADBC",
"m 	c #9AA3B0",
"n 	c #BCD5D7",
"o 	c #9BC8CD",
"p 	c #8BB4B8",
"q 	c #1F3A5F",
"r 	c #B3BAC4",
"s 	c #6E8B8D",
"t 	c #667487",
"u 	c #A5D4D7",
"v 	c #A5D4D9",
"w 	c #90BCBF",
"x 	c #9CC4C7",
"y 	c #6A7689",
"z 	c #9FCCD0",
"A 	c #1F3B60",
"B 	c #D3E4E5",
"C 	c #274976",
"D 	c #638284",
"E 	c #6E7A8A",
"F 	c #CBDCDD",
"G 	c #23436C",
"H 	c #294D7C",
"I 	c #EEEEEE",
"J 	c #798595",
"K 	c #BBD6D9",
"L 	c #E3E7E7",
"M 	c #89A2A4",
"N 	c #EDF1F1",
"O 	c #7B9C9F",
"P 	c #9DD1D5",
"Q 	c #E5ECED",
"R 	c #E5E9EC",
"S 	c #254674",
"T 	c #D4EAEC",
"U 	c #8DA6A9",
"V 	c #CBD2DB",
"W 	c #9FCDD1",
"X 	c #2B5287",
"Y 	c #E3EAEA",
"Z 	c #627694",
"` 	c #9BC9CD",
" .	c #EEEFF1",
"..	c #E6E6E6",
"+.	c #799FA1",
"@.	c #92BEC1",
"#.	c #8AA8AA",
"$.	c #709092",
"%.	c #294E7F",
"&.	c #DEF0F2",
"*.	c #779799",
"=.	c #CED5DB",
"-.	c #3A5B8B",
";.	c #76989B",
">.	c #DEDEDE",
",.	c #8094AD",
"'.	c #E2EAEB",
").	c #A4ACB8",
"!.	c #294878",
"~.	c #7D9D9F",
"{.	c #E9E9E9",
"].	c #E8ECEC",
"^.	c #CDCDCD",
"/.	c #CCDCDE",
"(.	c #BDC9CD",
"_.	c #98C4C7",
":.	c #88AEB0",
"<.	c #224069",
"[.	c #F6F6F6",
"}.	c #E5E7EA",
"|.	c #CED8DA",
"1.	c #254672",
"2.	c #8EB7BA",
"3.	c #91BCBF",
"4.	c #294C7C",
"5.	c #98C5C8",
"6.	c #99C5C8",
"7.	c #75999C",
"8.	c #B0C3C5",
"9.	c #85ACAF",
"0.	c #233D63",
"a.	c #EBEBEB",
"b.	c #73979B",
"c.	c #6F9092",
"d.	c #DADADA",
"e.	c #F9FAFA",
"f.	c #7E9FA1",
"g.	c #81A8AB",
"h.	c #90AAAA",
"i.	c #8FBCC0",
"j.	c #223957",
"k.	c #81A5A7",
"l.	c #E4F0F1",
"m.	c #919DAC",
"n.	c #7A9899",
"o.	c #AEBDBF",
"p.	c #779A9D",
"q.	c #B0BFC0",
"r.	c #8DB7BA",
"s.	c #A7CDCF",
"t.	c #E2E6E9",
"u.	c #9DC1C3",
"v.	c #D0D0D0",
"w.	c #9FABBC",
"x.	c #7E9998",
"y.	c #C9D3D5",
"z.	c #A1D0D4",
"A.	c #E4E4E4",
"B.	c #6E8A8C",
"C.	c #24446E",
"D.	c #9CCACC",
"E.	c #2F4767",
"F.	c #7FA4A8",
"G.	c #CACACA",
"H.	c #C9C9C9",
"H.H.H.H.H.H.H.G.A.        @ H.H.",
"H.H.H.H.H.H.H.# ]./ M U f N , H.",
"H.H.H.H.H.H.H.i q.D c.;.7.[ I & ",
"H.H.. - $ $ - L s : F.; 9 ; /.+ ",
"H.d.}.E y t ).(.e ~ p 5.D._ s.  ",
", ^ J < q d 0.=.#.k.3.W u z.l.. ",
"$ m j.A 6 1.S Z |.) w z P &.3 G.",
"% 4 ' <.C %.0 !.R F n K B % { H.",
"( r E.C.H * X ,.y.n.~.O 8.% G.H.",
"& 2 m.G 4.* -.t.x.B.*.f.+.'.@ G.",
"H.#  .] l w.V o.7 p.9.r.2.u.Q # ",
"H.H.> = . . [.h.$.g.@.` 8 6.5 c ",
"H.H.H.H.H.H.>.Y b.:._.| ! j a.^.",
"H.H.H.H.H.H.G.a b 1 i.o } e.v.H.",
"H.H.H.H.H.H.H.> h x k v T @ H.H.",
"H.H.H.H.H.H.H.G.= + {.+ ..g H.H."};
